<mxfile host="app.diagrams.net" modified="2023-10-08T03:34:49.679Z" agent="Mozilla/5.0 (X11; Linux x86_64) AppleWebKit/537.36 (KHTML, like Gecko) Chrome/117.0.0.0 Safari/537.36" version="21.8.2" etag="DuiS5lA467vfUncgPneL" type="github">
  <diagram name="Page-1" id="hQwGyKhbjzrT1JZe0jhg">
    <mxGraphModel>
      <root>
        <mxCell id="0" />
        <mxCell id="1" parent="0" />
      </root>
    </mxGraphModel>
  </diagram>
</mxfile>
